<svg width="29" height="28" viewBox="0 0 29 28" fill="none" xmlns="http://www.w3.org/2000/svg">
<g clip-path="url(#clip0_94_6893)">
<path d="M8.70703 26.7461C9.28125 26.7461 9.67969 26.4414 10.3945 25.8086L14.4375 22.2109H21.9609C25.4531 22.2109 27.3281 20.2773 27.3281 16.8438V7.86719C27.3281 4.43359 25.4531 2.5 21.9609 2.5H6.86719C3.375 2.5 1.5 4.42188 1.5 7.86719V16.8438C1.5 20.2891 3.375 22.2109 6.86719 22.2109H7.42969V25.2578C7.42969 26.1602 7.88672 26.7461 8.70703 26.7461ZM9.1875 24.6016V21.2031C9.1875 20.5703 8.94141 20.3242 8.30859 20.3242H6.86719C4.5 20.3242 3.38672 19.1172 3.38672 16.832V7.86719C3.38672 5.58203 4.5 4.38672 6.86719 4.38672H21.9609C24.3164 4.38672 25.4414 5.58203 25.4414 7.86719V16.832C25.4414 19.1172 24.3164 20.3242 21.9609 20.3242H14.3672C13.7109 20.3242 13.3828 20.418 12.9375 20.875L9.1875 24.6016ZM11.9297 16.7734L14.4258 14.9453L16.9219 16.7734C17.4023 17.1367 17.9766 16.8086 17.7539 16.1641L16.7812 13.2344L19.3359 11.3945C19.8516 11.0195 19.6289 10.4219 19.043 10.4219H15.8789L14.9414 7.50391C14.7656 6.94141 14.0859 6.94141 13.9102 7.50391L12.9609 10.4219H9.79688C9.21094 10.4219 8.97656 11.0195 9.50391 11.3945L12.0703 13.2344L11.0859 16.1641C10.8633 16.8086 11.4375 17.1367 11.9297 16.7734Z" fill="black"/>
</g>
<defs>
<clipPath id="clip0_94_6893">
<rect width="25.8281" height="25.7461" fill="white" transform="translate(1.5 1)"/>
</clipPath>
</defs>
</svg>
