<svg width="121" height="24" viewBox="0 0 121 24" fill="none" xmlns="http://www.w3.org/2000/svg">
<g clip-path="url(#clip0_12_10086)">
<path d="M10.18 19.5569H13.2346C11.655 18.8948 10.5284 17.3154 10.5284 15.4919C10.5284 13.0298 12.5609 10.9973 15.0231 10.9973C17.4737 10.9973 19.5062 13.0298 19.5062 15.4919C19.5062 17.3154 18.3796 18.8948 16.8 19.5569H19.8545C20.7953 18.4535 21.3644 17.0366 21.3644 15.4919C21.3644 12.0077 18.4841 9.12739 15.0231 9.12739C11.5504 9.12739 8.67017 12.0077 8.67017 15.4919C8.67017 17.0366 9.23926 18.4535 10.18 19.5569ZM2.65405 16.1307H5.51112C6.11506 16.1307 6.56801 15.7126 6.5564 15.19C6.54478 14.6673 6.10345 14.2492 5.51112 14.2492H2.65405C2.05011 14.2492 1.6204 14.6673 1.6204 15.19C1.6204 15.7126 2.05011 16.1307 2.65405 16.1307ZM9.0302 9.49904C9.39024 9.12739 9.39024 8.51184 8.96052 8.09373L6.93966 6.07287C6.50994 5.63154 5.91762 5.65477 5.54597 6.01481C5.17432 6.37484 5.1627 6.97877 5.60404 7.4085L7.62489 9.42936C8.043 9.85908 8.67016 9.87069 9.0302 9.49904ZM21.0044 9.49904C21.376 9.85908 21.9916 9.85908 22.4097 9.42936L24.4305 7.4085C24.8718 6.97877 24.8486 6.38646 24.4886 6.01481C24.1285 5.64316 23.5247 5.63154 23.0949 6.07287L21.074 8.09373C20.6443 8.51184 20.6327 9.139 21.0044 9.49904ZM24.5235 16.1307H27.3805C27.9845 16.1307 28.4142 15.7126 28.4142 15.19C28.4142 14.6673 27.9845 14.2492 27.3805 14.2492H24.5235C23.9311 14.2492 23.4666 14.6673 23.4782 15.19C23.4898 15.7126 23.9311 16.1307 24.5235 16.1307ZM15.0231 7.02524C15.5341 7.01362 15.9639 6.57229 15.9639 5.97996V3.12289C15.9639 2.51896 15.5341 2.08923 15.0231 2.08923C14.5005 2.08923 14.0707 2.51896 14.0707 3.12289V5.97996C14.0707 6.57229 14.5005 7.03685 15.0231 7.02524ZM1.14422 21.0319H28.8903C29.4362 21.0319 29.9008 20.6137 29.9008 20.1028C29.9008 19.5918 29.4362 19.1736 28.8903 19.1736H1.14422C0.598354 19.1736 0.133789 19.5918 0.133789 20.1028C0.133789 20.6137 0.598354 21.0319 1.14422 21.0319Z" fill="black"/>
</g>
<path d="M36.598 19V4.45455H38.7926V10.7756H46.044V4.45455H48.2457V19H46.044V12.6577H38.7926V19H36.598ZM51.2713 19V8.09091H53.3949V19H51.2713ZM52.3438 6.40767C51.9744 6.40767 51.6572 6.28456 51.392 6.03835C51.1316 5.7874 51.0014 5.48911 51.0014 5.14347C51.0014 4.79309 51.1316 4.49479 51.392 4.24858C51.6572 3.99763 51.9744 3.87216 52.3438 3.87216C52.7131 3.87216 53.0279 3.99763 53.2884 4.24858C53.5535 4.49479 53.6861 4.79309 53.6861 5.14347C53.6861 5.48911 53.5535 5.7874 53.2884 6.03835C53.0279 6.28456 52.7131 6.40767 52.3438 6.40767ZM60.8256 23.3182C59.9592 23.3182 59.2134 23.2045 58.5884 22.9773C57.9682 22.75 57.4615 22.4493 57.0685 22.0753C56.6755 21.7012 56.382 21.2917 56.1879 20.8466L58.0131 20.0938C58.141 20.3021 58.3114 20.5223 58.5245 20.7543C58.7423 20.991 59.0359 21.1922 59.4052 21.358C59.7792 21.5237 60.2598 21.6065 60.8469 21.6065C61.6519 21.6065 62.3171 21.41 62.8427 21.017C63.3683 20.6288 63.631 20.0085 63.631 19.1562V17.0114H63.4961C63.3683 17.2434 63.1836 17.5014 62.9421 17.7855C62.7054 18.0696 62.3787 18.3158 61.962 18.5241C61.5453 18.7325 61.0032 18.8366 60.3356 18.8366C59.4738 18.8366 58.6973 18.6354 58.006 18.233C57.3195 17.8258 56.775 17.2268 56.3725 16.4361C55.9748 15.6406 55.7759 14.6629 55.7759 13.5028C55.7759 12.3428 55.9724 11.3485 56.3654 10.5199C56.7631 9.69129 57.3076 9.05682 57.9989 8.61648C58.6902 8.1714 59.4738 7.94886 60.3498 7.94886C61.0269 7.94886 61.5737 8.0625 61.9904 8.28977C62.4071 8.51231 62.7314 8.77273 62.9634 9.07102C63.2002 9.36932 63.3825 9.6321 63.5103 9.85938H63.6665V8.09091H65.7475V19.2415C65.7475 20.179 65.5297 20.9484 65.0941 21.5497C64.6585 22.151 64.069 22.5961 63.3256 22.8849C62.587 23.1738 61.7537 23.3182 60.8256 23.3182ZM60.8043 17.0753C61.4151 17.0753 61.9312 16.9332 62.3526 16.6491C62.7788 16.3603 63.1007 15.9484 63.3185 15.4134C63.5411 14.8736 63.6523 14.2273 63.6523 13.4744C63.6523 12.7405 63.5434 12.0942 63.3256 11.5355C63.1078 10.9768 62.7882 10.5412 62.3668 10.2287C61.9454 9.91146 61.4246 9.75284 60.8043 9.75284C60.1651 9.75284 59.6325 9.91856 59.2063 10.25C58.7802 10.5767 58.4582 11.0218 58.2404 11.5852C58.0273 12.1487 57.9208 12.7784 57.9208 13.4744C57.9208 14.1894 58.0297 14.8168 58.2475 15.3565C58.4653 15.8963 58.7873 16.3177 59.2134 16.6207C59.6443 16.9238 60.1746 17.0753 60.8043 17.0753ZM70.7191 12.5227V19H68.5955V4.45455H70.6907V9.86648H70.8256C71.0813 9.27936 71.4719 8.81297 71.9975 8.46733C72.5231 8.12169 73.2096 7.94886 74.0572 7.94886C74.8053 7.94886 75.4587 8.10275 76.0174 8.41051C76.5808 8.71828 77.0165 9.17756 77.3242 9.78835C77.6367 10.3944 77.793 11.152 77.793 12.0611V19H75.6694V12.3168C75.6694 11.5166 75.4634 10.8963 75.0515 10.456C74.6396 10.0109 74.0666 9.78835 73.3327 9.78835C72.8308 9.78835 72.381 9.89489 71.9833 10.108C71.5903 10.321 71.2802 10.6335 71.0529 11.0455C70.8304 11.4527 70.7191 11.9451 70.7191 12.5227ZM82.7504 4.45455V19H80.6268V4.45455H82.7504ZM85.6072 19V8.09091H87.7308V19H85.6072ZM86.6797 6.40767C86.3104 6.40767 85.9931 6.28456 85.728 6.03835C85.4676 5.7874 85.3374 5.48911 85.3374 5.14347C85.3374 4.79309 85.4676 4.49479 85.728 4.24858C85.9931 3.99763 86.3104 3.87216 86.6797 3.87216C87.049 3.87216 87.3639 3.99763 87.6243 4.24858C87.8894 4.49479 88.022 4.79309 88.022 5.14347C88.022 5.48911 87.8894 5.7874 87.6243 6.03835C87.3639 6.28456 87.049 6.40767 86.6797 6.40767ZM95.1616 23.3182C94.2951 23.3182 93.5494 23.2045 92.9244 22.9773C92.3041 22.75 91.7975 22.4493 91.4045 22.0753C91.0115 21.7012 90.7179 21.2917 90.5238 20.8466L92.3491 20.0938C92.4769 20.3021 92.6474 20.5223 92.8604 20.7543C93.0782 20.991 93.3718 21.1922 93.7411 21.358C94.1152 21.5237 94.5958 21.6065 95.1829 21.6065C95.9878 21.6065 96.6531 21.41 97.1786 21.017C97.7042 20.6288 97.967 20.0085 97.967 19.1562V17.0114H97.832C97.7042 17.2434 97.5195 17.5014 97.2781 17.7855C97.0413 18.0696 96.7146 18.3158 96.2979 18.5241C95.8813 18.7325 95.3391 18.8366 94.6715 18.8366C93.8098 18.8366 93.0333 18.6354 92.342 18.233C91.6554 17.8258 91.1109 17.2268 90.7085 16.4361C90.3107 15.6406 90.1119 14.6629 90.1119 13.5028C90.1119 12.3428 90.3084 11.3485 90.7013 10.5199C91.0991 9.69129 91.6436 9.05682 92.3349 8.61648C93.0262 8.1714 93.8098 7.94886 94.6857 7.94886C95.3628 7.94886 95.9097 8.0625 96.3263 8.28977C96.743 8.51231 97.0674 8.77273 97.2994 9.07102C97.5361 9.36932 97.7184 9.6321 97.8462 9.85938H98.0025V8.09091H100.083V19.2415C100.083 20.179 99.8656 20.9484 99.43 21.5497C98.9944 22.151 98.4049 22.5961 97.6616 22.8849C96.9229 23.1738 96.0896 23.3182 95.1616 23.3182ZM95.1403 17.0753C95.7511 17.0753 96.2672 16.9332 96.6886 16.6491C97.1147 16.3603 97.4367 15.9484 97.6545 15.4134C97.877 14.8736 97.9883 14.2273 97.9883 13.4744C97.9883 12.7405 97.8794 12.0942 97.6616 11.5355C97.4438 10.9768 97.1242 10.5412 96.7028 10.2287C96.2814 9.91146 95.7605 9.75284 95.1403 9.75284C94.5011 9.75284 93.9684 9.91856 93.5423 10.25C93.1161 10.5767 92.7942 11.0218 92.5763 11.5852C92.3633 12.1487 92.2567 12.7784 92.2567 13.4744C92.2567 14.1894 92.3656 14.8168 92.5835 15.3565C92.8013 15.8963 93.1232 16.3177 93.5494 16.6207C93.9802 16.9238 94.5105 17.0753 95.1403 17.0753ZM105.055 12.5227V19H102.931V4.45455H105.027V9.86648H105.162C105.417 9.27936 105.808 8.81297 106.333 8.46733C106.859 8.12169 107.546 7.94886 108.393 7.94886C109.141 7.94886 109.795 8.10275 110.353 8.41051C110.917 8.71828 111.352 9.17756 111.66 9.78835C111.973 10.3944 112.129 11.152 112.129 12.0611V19H110.005V12.3168C110.005 11.5166 109.799 10.8963 109.387 10.456C108.975 10.0109 108.403 9.78835 107.669 9.78835C107.167 9.78835 106.717 9.89489 106.319 10.108C105.926 10.321 105.616 10.6335 105.389 11.0455C105.166 11.4527 105.055 11.9451 105.055 12.5227ZM120.055 8.09091V9.79545H114.096V8.09091H120.055ZM115.694 5.47727H117.818V15.7969C117.818 16.2088 117.879 16.5189 118.002 16.7273C118.126 16.9309 118.284 17.0705 118.478 17.1463C118.677 17.2173 118.893 17.2528 119.125 17.2528C119.295 17.2528 119.444 17.241 119.572 17.2173C119.7 17.1937 119.799 17.1747 119.87 17.1605L120.254 18.9148C120.131 18.9621 119.956 19.0095 119.728 19.0568C119.501 19.1089 119.217 19.1373 118.876 19.142C118.317 19.1515 117.797 19.0521 117.314 18.8438C116.831 18.6354 116.44 18.3134 116.142 17.8778C115.843 17.4422 115.694 16.8954 115.694 16.2372V5.47727Z" fill="black"/>
<defs>
<clipPath id="clip0_12_10086">
<rect width="29.767" height="20.7312" fill="white" transform="translate(0.133789 2.08923)"/>
</clipPath>
</defs>
</svg>
