<svg width="29" height="28" viewBox="0 0 29 28" fill="none" xmlns="http://www.w3.org/2000/svg">
<path d="M1.42578 16.9648C1.97656 16.9648 2.38672 16.543 2.38672 16.0156V12.4648C2.38672 11.9375 1.97656 11.5039 1.42578 11.5039C0.898438 11.5039 0.5 11.9375 0.5 12.4648V16.0156C0.5 16.543 0.898438 16.9648 1.42578 16.9648ZM5.375 21.7578C5.91406 21.7578 6.32422 21.3359 6.32422 20.8086V7.67188C6.32422 7.14453 5.91406 6.71094 5.375 6.71094C4.84766 6.71094 4.4375 7.14453 4.4375 7.67188V20.8086C4.4375 21.3359 4.84766 21.7578 5.375 21.7578ZM9.3125 26.4805C9.85156 26.4805 10.2734 26.0586 10.2734 25.5312V2.94922C10.2734 2.42188 9.85156 2 9.3125 2C8.78516 2 8.38672 2.42188 8.38672 2.94922V25.5312C8.38672 26.0586 8.78516 26.4805 9.3125 26.4805ZM13.2617 20.3281C13.8008 20.3281 14.2109 19.918 14.2109 19.3906V9.08984C14.2109 8.5625 13.8008 8.14062 13.2617 8.14062C12.7227 8.14062 12.3242 8.5625 12.3242 9.08984V19.3906C12.3242 19.918 12.7227 20.3281 13.2617 20.3281ZM16.2617 15.125C16.7891 14.5039 17.4219 13.9883 18.1484 13.6367V5.53906C18.1484 5.02344 17.7383 4.58984 17.2109 4.58984C16.6602 4.58984 16.2617 5.02344 16.2617 5.53906V15.125ZM20.2109 13.0156C20.8438 12.9336 21.4648 12.9453 22.0977 13.0625V11.4453C22.0977 10.9297 21.6758 10.4961 21.1484 10.4961C20.6094 10.4961 20.2109 10.9297 20.2109 11.4453V13.0156ZM20.9609 23.9258C23.5742 23.9258 25.6953 21.8047 25.6953 19.1914C25.6953 16.5898 23.5742 14.4688 20.9609 14.4688C18.3711 14.4688 16.2383 16.6016 16.2383 19.1914C16.2383 21.793 18.3711 23.9258 20.9609 23.9258ZM20.9609 22.3555C19.2383 22.3555 17.8086 20.9258 17.8086 19.1914C17.8086 17.4805 19.2383 16.0508 20.9609 16.0508C22.6953 16.0508 24.1133 17.4688 24.1133 19.1914C24.1133 20.9258 22.6953 22.3555 20.9609 22.3555ZM27.1484 26.4102C27.6992 26.4102 28.0977 26 28.0977 25.4258C28.0977 25.168 27.957 24.9219 27.7695 24.7227L24.2188 21.1484L22.7422 22.4844L26.3398 26.0586C26.5742 26.293 26.8203 26.4102 27.1484 26.4102Z" fill="#595959"/>
</svg>
